<?xml version="1.0" encoding="utf-8"?><!DOCTYPE svg PUBLIC "-//W3C//DTD SVG 1.1//EN" "http://www.w3.org/Graphics/SVG/1.1/DTD/svg11.dtd"><svg version="1.1" xmlns="http://www.w3.org/2000/svg" xmlns:xlink="http://www.w3.org/1999/xlink" width="32" height="32" viewBox="0 0 32 32" data-tags="calendar-alt-fill,date"><g fill="#444" transform="scale(0.03125 0.03125)"><path d="M832 128v65.504c0 70.752-57.248 128-128 128s-128-57.248-128-128v-65.504h-128v65.504c0 70.752-57.248 128-128 128s-128-57.248-128-128v-65.504h-192v896h1024v-896h-192zM320 896h-128v-128h128v128zM320 640h-128v-128h128v128zM576 896h-128v-128h128v128zM576 640h-128v-128h128v128zM704 896v-128h128l-128 128zM832 640h-128v-128h128v128zM256 192v-128c0-35.36 28.64-64 64-64s64 28.64 64 64v128c0 35.36-28.64 64-64 64s-64-28.64-64-64zM640 192v-128c0-35.36 28.64-64 64-64s64 28.64 64 64v128c0 35.36-28.64 64-64 64s-64-28.64-64-64z" /></g></svg>